<?xml version="1.0" encoding="UTF-8"?>
<svg xmlns="http://www.w3.org/2000/svg" xmlns:xlink="http://www.w3.org/1999/xlink" viewBox="0 0 25 25" width="25px" height="25px">
<g id="surface59397111">
<path style=" stroke:none;fill-rule:nonzero;fill:rgb(100%,100%,100%);fill-opacity:1;" d="M 11.355469 2.1875 C 6.5625 2.707031 2.707031 6.5625 2.1875 11.25 C 1.667969 16.144531 4.480469 20.519531 8.75 22.1875 C 9.0625 22.292969 9.375 22.082031 9.375 21.667969 L 9.375 20 C 9.375 20 8.957031 20.105469 8.4375 20.105469 C 6.980469 20.105469 6.355469 18.855469 6.25 18.125 C 6.144531 17.707031 5.9375 17.394531 5.625 17.082031 C 5.3125 16.980469 5.207031 16.980469 5.207031 16.875 C 5.207031 16.667969 5.519531 16.667969 5.625 16.667969 C 6.25 16.667969 6.769531 17.394531 6.980469 17.707031 C 7.5 18.542969 8.125 18.75 8.4375 18.75 C 8.855469 18.75 9.167969 18.644531 9.375 18.542969 C 9.480469 17.8125 9.792969 17.082031 10.417969 16.667969 C 8.019531 16.144531 6.25 14.792969 6.25 12.5 C 6.25 11.355469 6.769531 10.207031 7.5 9.375 C 7.394531 9.167969 7.292969 8.644531 7.292969 7.917969 C 7.292969 7.5 7.292969 6.980469 7.5 6.5625 C 7.5 6.355469 7.707031 6.25 7.8125 6.25 L 7.917969 6.25 C 8.4375 6.355469 9.480469 6.667969 10.417969 7.605469 C 11.042969 7.394531 11.769531 7.292969 12.5 7.292969 C 13.230469 7.292969 13.957031 7.394531 14.582031 7.605469 C 15.519531 6.667969 16.667969 6.355469 17.1875 6.25 L 17.292969 6.25 C 17.5 6.25 17.605469 6.355469 17.707031 6.5625 C 17.707031 6.980469 17.707031 7.5 17.707031 7.917969 C 17.707031 8.75 17.605469 9.167969 17.5 9.375 C 18.230469 10.207031 18.75 11.25 18.75 12.5 C 18.75 14.792969 16.980469 16.144531 14.582031 16.667969 C 15.207031 17.1875 15.625 18.125 15.625 19.0625 L 15.625 21.769531 C 15.625 22.082031 15.9375 22.394531 16.355469 22.292969 C 20.207031 20.730469 22.917969 16.980469 22.917969 12.605469 C 22.917969 6.355469 17.605469 1.457031 11.355469 2.1875 Z M 11.355469 2.1875 "/>
</g>
</svg>
